# xmcd
#
# Track frame offsets:
#	150
#	40641
#	78819
#	120800
#	157305
#	172289
#	217788
#	242211
#	260185
#
# Disc length: 3640 seconds
#
# Revision: 0
# Processed by: cddbd v1.5.2PL0 Copyright (c) Steve Scherf et al.
# Submitted via: EZCDAudioConverter 1.3.4.1
#
DISCID=740e3609
DTITLE=WADADA LEO SMITH and LOUIS MOHOLO-MOHOLO - ANCESTORS
DYEAR=1900
DGENRE=
TTITLE0=MOHOLO-MOHOLO - GOLDEN SPIRIT
TTITLE1=NO NAME IN THE STREET, JAMES BALDWIN
TTITLE2=JACKSON POLLOCK - ACTION
TTITLE3=SIHOLARO
TTITLE4=ANCESTORS (PART 1)
TTITLE5=ANCESTORS (PART 2)
TTITLE6=ANCESTORS (PART 3)
TTITLE7=ANCESTORS (PART 4)
TTITLE8=ANCESTORS (PART 5)
EXTD=
EXTT0=
EXTT1=
EXTT2=
EXTT3=
EXTT4=
EXTT5=
EXTT6=
EXTT7=
EXTT8=
PLAYORDER=
